HIERARCHY
ROOT Hips
{
	OFFSET -0.001795 -0.223333 0.028219
	CHANNELS 6 Xposition Yposition Zposition Zrotation Yrotation Xrotation 
	JOINT LeftUpLeg
	{
		OFFSET 0.069520 -0.091406 -0.006815
		CHANNELS 3 Zrotation Yrotation Xrotation
		JOINT LeftLeg
		{
			OFFSET 0.034277 -0.375199 -0.004496
			CHANNELS 3 Zrotation Yrotation Xrotation
			JOINT LeftFoot
			{
				OFFSET -0.013596 -0.397961 -0.043693
				CHANNELS 3 Zrotation Yrotation Xrotation
				JOINT LeftToe
				{
					OFFSET 0.026358 -0.055791 0.119288
					CHANNELS 3 Zrotation Yrotation Xrotation
					End Site
					{
						OFFSET 0.000000 0.000000 0.000000
					}
				}
			}
		}
	}
	JOINT RightUpLeg
	{
		OFFSET -0.067670 -0.090522 -0.004320
		CHANNELS 3 Zrotation Yrotation Xrotation
		JOINT RightLeg
		{
			OFFSET -0.038290 -0.382569 -0.008850
			CHANNELS 3 Zrotation Yrotation Xrotation
			JOINT RightFoot
			{
				OFFSET 0.015774 -0.398415 -0.042312
				CHANNELS 3 Zrotation Yrotation Xrotation
				JOINT RightToe
				{
					OFFSET -0.025372 -0.048144 0.123348
					CHANNELS 3 Zrotation Yrotation Xrotation
					End Site
					{
						OFFSET 0.000000 0.000000 0.000000
					}
				}
			}
		}
	}
	JOINT Spine
	{
		OFFSET -0.002533 0.108963 -0.026696
		CHANNELS 3 Zrotation Yrotation Xrotation
		JOINT Spine1
		{
			OFFSET 0.005487 0.135180 0.001092
			CHANNELS 3 Zrotation Yrotation Xrotation
			JOINT Spine2
			{
				OFFSET 0.001457 0.052922 0.025425
				CHANNELS 3 Zrotation Yrotation Xrotation
				JOINT Neck
				{
					OFFSET -0.002778 0.213870 -0.042857
					CHANNELS 3 Zrotation Yrotation Xrotation
					JOINT Head
					{
						OFFSET 0.005152 0.064970 0.051349
						CHANNELS 3 Zrotation Yrotation Xrotation
						End Site
						{
							OFFSET 0.000000 0.000000 0.000000
						}
					}
				}
				JOINT LeftShoulder
				{
					OFFSET 0.078845 0.121749 -0.034090
					CHANNELS 3 Zrotation Yrotation Xrotation
					JOINT LeftArm
					{
						OFFSET 0.090977 0.030469 -0.008868
						CHANNELS 3 Zrotation Yrotation Xrotation
						JOINT LeftForeArm
						{
							OFFSET 0.259612 -0.012772 -0.027456
							CHANNELS 3 Zrotation Yrotation Xrotation
							JOINT LeftHand
							{
								OFFSET 0.249234 0.008986 -0.001171
								CHANNELS 3 Zrotation Yrotation Xrotation
								End Site
								{
									OFFSET 0.000000 0.000000 0.000000
								}
							}
						}
					}
				}
				JOINT RightShoulder
				{
					OFFSET -0.081759 0.118833 -0.038615
					CHANNELS 3 Zrotation Yrotation Xrotation
					JOINT RightArm
					{
						OFFSET -0.096012 0.032551 -0.009143
						CHANNELS 3 Zrotation Yrotation Xrotation
						JOINT RightForeArm
						{
							OFFSET -0.253742 -0.013329 -0.021401
							CHANNELS 3 Zrotation Yrotation Xrotation
							JOINT RightHand
							{
								OFFSET -0.255298 0.007772 -0.005559
								CHANNELS 3 Zrotation Yrotation Xrotation
								End Site
								{
									OFFSET 0.000000 0.000000 0.000000
								}
							}
						}
					}
				}
			}
		}
	}
}
MOTION
Frames: 10
Frame Time: 0.05000000
0.000000 0.964483 0.000000 -15.729454 5.096370 147.225320 13.014426 1.837434 -57.561285 -108.022479 -32.311019 2.600799 11.696916 16.891729 -103.496800 0.000000 0.000000 0.000000 -3.009975 2.458284 21.079316 49.155300 11.658243 -2.361032 -14.122872 -9.653113 -88.306722 0.000000 0.000000 0.000000 -7.039072 10.378417 15.809356 -5.055431 1.095981 -32.506853 3.991581 -6.138098 10.607407 0.169342 3.082045 -5.077631 0.000000 0.000000 0.000000 19.063247 -24.642218 22.268678 40.515756 -14.914010 -3.487283 23.851303 25.812027 7.675888 0.000000 0.000000 0.000000 -19.587300 24.580857 13.150619 -44.086388 22.991202 -15.856664 -30.756326 -9.868344 5.218000 0.000000 0.000000 0.000000 
0.002223 0.981909 0.071577 -16.270152 17.202806 153.933393 42.348648 1.156631 -51.541926 -73.568791 -14.401923 -30.592991 5.609955 20.629164 -102.015807 0.000000 0.000000 0.000000 -7.239773 10.075666 30.995604 36.461565 0.632566 2.595092 -24.758801 -39.129704 -69.386599 0.000000 0.000000 0.000000 -7.337489 9.141158 10.228224 3.761404 1.602720 -27.561640 3.103937 7.362282 5.219727 -2.985730 0.308353 -6.252326 0.000000 0.000000 0.000000 20.343032 -29.543764 21.975277 40.975999 -8.971620 -2.121986 19.588003 27.454451 7.075285 0.000000 0.000000 0.000000 -19.445702 25.881131 18.749543 -48.129038 17.062948 -11.244372 -30.532326 -16.149759 6.994653 0.000000 0.000000 0.000000 
0.002156 1.004267 0.139931 -11.951297 15.890564 157.889549 28.123423 -0.925102 -50.410297 -11.227386 -1.370578 -28.003230 -0.815234 32.887385 -100.604797 0.000000 0.000000 0.000000 -10.386461 4.011315 31.188967 26.146822 -4.776866 18.942416 -29.706659 -25.358971 -12.409768 0.000000 0.000000 0.000000 -4.958609 4.792711 9.128205 -3.163793 1.084032 -33.216615 11.178555 3.716415 12.824364 -26.007345 1.625127 -18.864186 0.000000 0.000000 0.000000 15.224672 -24.352251 21.151416 44.270718 -15.487263 -5.940823 25.469046 28.161120 8.884652 0.000000 0.000000 0.000000 -18.951835 24.867376 15.939022 -44.105166 17.389926 -10.474134 -35.019251 -12.357247 8.257222 0.000000 0.000000 0.000000 
0.001511 1.025327 0.203353 -11.493112 20.859174 163.720185 31.821974 -2.781247 -44.720894 4.646750 2.214576 -9.982936 -8.162868 33.970923 -98.446986 0.000000 0.000000 0.000000 -9.980992 3.340214 24.569227 13.583612 -2.384503 33.720855 -21.821664 -15.343350 35.334468 0.000000 0.000000 0.000000 -3.606406 3.551287 6.485364 0.349143 1.574758 -35.107844 8.892142 9.925517 17.619923 -21.904820 -0.657880 -33.260482 0.000000 0.000000 0.000000 25.924686 -18.577391 14.141230 34.590241 -18.328842 -5.131844 28.662875 25.221173 9.011064 0.000000 0.000000 0.000000 -19.272122 22.228913 16.751541 -46.655003 17.442415 -10.778460 -33.083961 -16.672197 8.444633 0.000000 0.000000 0.000000 
0.002653 1.030008 0.258620 -7.044780 22.892954 170.949321 35.269641 -6.153453 -42.364003 2.713240 1.146514 -7.946731 -18.467820 40.333021 -92.442044 0.000000 0.000000 0.000000 -8.093683 -1.378010 20.848797 4.625742 1.781378 40.023947 -16.445253 -13.298754 34.085321 0.000000 0.000000 0.000000 0.572491 -1.038875 0.082563 -4.377237 0.939742 -38.463607 17.813117 12.506871 25.938862 -21.846554 -0.690276 -30.293448 0.000000 0.000000 0.000000 16.538832 -19.189711 13.616700 43.177986 -19.491093 -7.958863 29.975917 21.784473 8.514285 0.000000 0.000000 0.000000 -14.011416 22.668684 20.248056 -50.292220 14.510592 -10.211518 -34.158775 -20.286784 10.465871 0.000000 0.000000 0.000000 
0.006156 1.031456 0.303718 -4.657681 24.121617 172.868107 29.732135 -8.973994 -34.613267 6.596115 1.525832 -6.370178 -16.793469 52.706588 -71.781933 0.000000 0.000000 0.000000 -6.806992 -3.259493 19.676578 -2.012426 6.281304 42.187328 -7.071789 -8.050428 29.737489 0.000000 0.000000 0.000000 1.077611 -2.402809 0.675765 -3.285568 0.993215 -33.560294 15.314030 14.595145 20.204162 -17.627155 -1.812654 -42.801737 0.000000 0.000000 0.000000 25.671753 -14.096998 9.569976 35.235461 -26.291299 -6.983844 31.880335 17.069829 7.385948 0.000000 0.000000 0.000000 -20.441354 17.825295 15.365484 -44.065999 21.694942 -11.400981 -35.437805 -22.454985 11.240185 0.000000 0.000000 0.000000 
0.011715 1.033301 0.339630 -1.647658 22.272105 177.424499 22.536075 -9.964317 -24.008052 6.243695 2.487515 -14.587345 -23.120538 53.741004 -80.261594 0.000000 0.000000 0.000000 -2.208090 -1.203291 15.557704 -1.533360 8.393243 40.055050 -6.232556 -8.561524 38.553086 0.000000 0.000000 0.000000 4.217978 -1.822939 -4.093387 -5.620393 0.853537 -29.638616 14.966780 11.859332 20.954272 -14.097983 -0.865235 -50.666865 0.000000 0.000000 0.000000 24.350591 -9.747822 7.816658 35.109068 -28.876001 -5.607421 33.669143 16.708826 8.929391 0.000000 0.000000 0.000000 -24.720055 14.741073 12.202558 -41.181885 22.899166 -13.738369 -35.791366 -22.453513 9.786944 0.000000 0.000000 0.000000 
0.019061 1.041235 0.369456 0.483134 18.288489 -178.557955 12.809209 -1.522299 -12.837104 2.701442 0.369190 -15.598673 91.049409 44.096270 27.465464 0.000000 0.000000 0.000000 1.439155 5.719755 12.079068 0.866027 5.312058 34.659741 -1.457842 -9.341402 41.598960 0.000000 0.000000 0.000000 2.315527 15.766301 -7.557900 -4.085292 1.003061 -26.391413 3.988902 -4.935564 17.624295 -14.080708 -1.274940 -52.293681 0.000000 0.000000 0.000000 21.122033 -9.871255 8.124875 35.977843 -28.706727 -8.259711 37.387305 9.800570 5.954590 0.000000 0.000000 0.000000 -24.396463 11.392984 7.513615 -39.637728 24.971462 -17.047478 -35.222432 -20.046525 7.355499 0.000000 0.000000 0.000000 
0.027373 1.049535 0.397477 1.463539 16.550703 -175.307181 10.767491 0.451028 -2.845909 -7.651571 0.730507 -7.903417 81.337844 33.695130 26.316682 0.000000 0.000000 0.000000 3.174792 4.572695 6.523152 -6.129943 5.111890 28.508416 8.803775 -3.948575 43.264503 0.000000 0.000000 0.000000 2.989646 9.610806 -12.845600 -5.241779 1.499447 -24.168091 8.691857 -2.428537 20.316374 -14.887577 -1.799547 -57.352472 0.000000 0.000000 0.000000 15.616724 -10.211720 6.677161 35.753774 -29.313275 -11.989663 41.391518 4.780038 3.510257 0.000000 0.000000 0.000000 -29.555180 8.636507 6.985186 -36.449479 25.989868 -12.506243 -31.623326 -25.096524 8.972666 0.000000 0.000000 0.000000 
0.035092 1.059093 0.426468 2.809125 12.255612 -172.918671 10.854060 5.232430 2.695725 -12.088343 1.858191 5.975308 42.016464 26.287856 8.515523 0.000000 0.000000 0.000000 4.441543 9.468166 -0.474687 -3.235431 3.356613 25.223681 6.442948 -4.946024 42.608939 0.000000 0.000000 0.000000 2.177097 12.054222 -12.277816 -3.766137 1.127506 -23.869234 4.832742 -6.702643 18.913843 -15.619012 -1.267225 -57.125852 0.000000 0.000000 0.000000 16.526796 -7.249305 6.809966 36.434313 -30.395681 -10.278822 40.648958 8.608842 5.815352 0.000000 0.000000 0.000000 -28.699654 5.518294 5.222630 -36.373637 26.195843 -14.217817 -30.636141 -23.300683 7.009939 0.000000 0.000000 0.000000 
